<svg width="42" height="32" viewBox="0 0 42 32" fill="none" xmlns="http://www.w3.org/2000/svg">
<g clip-path="url(#clip0_8240_58)">
<path d="M40.2268 13.7183C40.1132 13.6233 39.0904 12.8441 36.8931 12.8441C36.3249 12.8441 35.7376 12.9011 35.1694 12.9961C34.7527 10.0885 32.3472 8.68224 32.2524 8.60621L31.6652 8.26416L31.2863 8.81527C30.8129 9.55642 30.453 10.3926 30.2445 11.2478C29.8469 12.9011 30.093 14.4594 30.9266 15.7897C29.9226 16.3598 28.2936 16.4929 27.9526 16.5119H1.05538C0.354538 16.5119 -0.213714 17.082 -0.213714 17.7852C-0.251598 20.1416 0.146178 22.4982 0.960673 24.7216C1.88883 27.1541 3.27157 28.9594 5.05209 30.0618C7.0599 31.297 10.3368 32.0001 14.0305 32.0001C15.6973 32.0001 17.3643 31.8481 19.0122 31.544C21.3041 31.1259 23.5013 30.3278 25.5281 29.1686C27.195 28.1994 28.6914 26.964 29.9605 25.5197C32.1009 23.1062 33.37 20.4077 34.2981 18.0132H34.677C37.0067 18.0132 38.4464 17.082 39.2419 16.2838C39.7722 15.7897 40.1701 15.1816 40.4543 14.4975L40.6246 14.0034L40.2268 13.7183Z" fill="#2C4296"/>
<path d="M3.57199 15.7478H7.17081C7.34128 15.7478 7.49282 15.6145 7.49282 15.4242V12.1883C7.49282 12.017 7.36022 11.8647 7.17081 11.8647H3.57199C3.40152 11.8647 3.25 11.9979 3.25 12.1883V15.4242C3.26894 15.6145 3.40152 15.7478 3.57199 15.7478ZM8.53458 15.7478H12.1334C12.3039 15.7478 12.4554 15.6145 12.4554 15.4242V12.1883C12.4554 12.017 12.3228 11.8647 12.1334 11.8647H8.53458C8.3641 11.8647 8.21258 11.9979 8.21258 12.1883V15.4242C8.23152 15.6145 8.3641 15.7478 8.53458 15.7478ZM13.5919 15.7478H17.1907C17.3611 15.7478 17.5126 15.6145 17.5126 15.4242V12.1883C17.5126 12.017 17.3801 11.8647 17.1907 11.8647H13.5919C13.4214 11.8647 13.2699 11.9979 13.2699 12.1883V15.4242C13.2699 15.6145 13.4025 15.7478 13.5919 15.7478ZM18.5735 15.7478H22.1722C22.3427 15.7478 22.4942 15.6145 22.4942 15.4242V12.1883C22.4942 12.017 22.3616 11.8647 22.1722 11.8647L18.5735 11.8647C18.4029 11.8647 18.2514 11.9979 18.2514 12.1883V15.4242C18.2514 15.6145 18.4029 15.7478 18.5735 15.7478ZM8.53458 11.1223H12.1334C12.3039 11.1223 12.4554 10.97 12.4554 10.7987V7.56282C12.4554 7.39151 12.3228 7.23922 12.1334 7.23922H8.53458C8.3641 7.23922 8.21258 7.37246 8.21258 7.56282V10.7987C8.23152 10.97 8.3641 11.1223 8.53458 11.1223ZM13.5919 11.1223H17.1907C17.3611 11.1223 17.5126 10.97 17.5126 10.7987V7.56282C17.5126 7.39151 17.3801 7.23922 17.1907 7.23922H13.5919C13.4214 7.23922 13.2699 7.37246 13.2699 7.56282V10.7987C13.2699 10.97 13.4025 11.1223 13.5919 11.1223ZM18.5735 11.1223H22.1722C22.3427 11.1223 22.4942 10.97 22.4942 10.7987V7.56282C22.4942 7.39151 22.3427 7.23922 22.1722 7.23922H18.5735C18.4029 7.23922 18.2514 7.37246 18.2514 7.56282V10.7987C18.2514 10.97 18.4029 11.1223 18.5735 11.1223ZM18.5735 6.47783H22.1722C22.3427 6.47783 22.4942 6.34459 22.4942 6.15423V2.91832C22.4942 2.74701 22.3427 2.59473 22.1722 2.59473H18.5735C18.4029 2.59473 18.2514 2.72797 18.2514 2.91832V6.15423C18.2514 6.32555 18.4029 6.47783 18.5735 6.47783ZM23.5928 15.7478H27.1917C27.362 15.7478 27.5136 15.6145 27.5136 15.4242V12.1883C27.5136 12.017 27.3811 11.8647 27.1917 11.8647H23.5928C23.4222 11.8647 23.2707 11.9979 23.2707 12.1883V15.4242C23.2897 15.6145 23.4222 15.7478 23.5928 15.7478Z" fill="#2C4296"/>
</g>
<defs>
<clipPath id="clip0_8240_58">
<rect width="41.5135" height="32" fill="white"/>
</clipPath>
</defs>
</svg>
