<svg version="1.1" id="Layer_1" xmlns="http://www.w3.org/2000/svg" xmlns:xlink="http://www.w3.org/1999/xlink" x="0px" y="0px"
	 width="100%" viewBox="0 0 80 80" enable-background="new 0 0 80 80" xml:space="preserve">
<path fill="#010102" opacity="1.000000" stroke="none" 
	d="
M39.000000,81.000000 
	C26.369417,81.000000 13.738834,81.000000 1.054126,81.000000 
	C1.054126,54.445473 1.054126,27.890814 1.054126,1.000000 
	C12.685412,1.000000 24.374048,1.000000 36.884521,1.100492 
	C36.908669,1.825148 36.204021,2.714205 35.298779,3.032192 
	C26.930700,5.971656 18.527990,8.812528 9.815354,11.742962 
	C9.365638,12.193754 9.235914,12.583638 9.049549,13.440840 
	C8.984837,20.067429 8.978475,26.226702 8.968382,32.385971 
	C8.934117,53.296776 18.200724,68.606354 36.615215,78.469055 
	C37.584072,78.987968 38.212883,80.141769 39.000000,81.000000 
z"/>
<path fill="#020305" opacity="1.000000" stroke="none" 
	d="
M47.000000,1.000000 
	C58.300186,1.000000 69.600372,1.000000 80.900558,1.000000 
	C80.933708,1.133031 80.995880,1.266058 80.995895,1.399095 
	C81.000145,27.821587 81.000000,54.244080 81.000000,81.000000 
	C69.314552,81.000000 57.625935,81.000000 45.207764,80.706223 
	C46.327095,79.339104 48.190811,78.290421 50.022526,77.188545 
	C64.847969,68.270226 73.808441,55.607956 75.117981,37.542271 
	C75.252419,29.888796 75.331139,22.690830 75.237663,15.495100 
	C75.220886,14.203531 74.493469,12.921192 73.815598,11.411746 
	C65.392197,8.475961 57.235199,5.798242 49.120804,2.997113 
	C48.283806,2.708177 47.700840,1.683361 47.000000,1.000000 
z"/>
<path fill="#5179C5" opacity="1.000000" stroke="none" 
	d="
M39.375000,81.000000 
	C38.212883,80.141769 37.584072,78.987968 36.615215,78.469055 
	C18.200724,68.606354 8.934117,53.296776 8.968382,32.385971 
	C8.978475,26.226702 8.984837,20.067429 9.247715,13.248774 
	C9.713462,12.286944 9.924405,11.984499 10.135347,11.682055 
	C18.527990,8.812528 26.930700,5.971656 35.298779,3.032192 
	C36.204021,2.714205 36.908669,1.825148 37.353180,1.100492 
	C37.444447,1.000000 37.888889,1.000000 38.377129,1.107673 
	C38.947285,1.143564 39.473640,1.071782 40.000000,1.000000 
	C40.444447,1.000000 40.888889,1.000000 41.674381,1.443858 
	C42.066708,4.533830 42.117985,7.179945 42.121811,9.875107 
	C42.074360,9.924154 41.978706,10.021532 41.612129,10.090737 
	C34.605293,12.350487 27.991333,14.626004 21.312769,16.692772 
	C18.340994,17.612427 16.797428,19.230091 17.012405,22.439943 
	C17.433947,28.734041 17.169342,35.141235 18.268435,41.309219 
	C20.769835,55.346825 28.376604,65.690239 42.013165,71.289490 
	C42.023506,71.727249 42.028625,71.902328 42.030548,72.522453 
	C42.018238,75.645004 42.009117,78.322502 42.000000,81.000000 
	C41.250000,81.000000 40.500000,81.000000 39.375000,81.000000 
z"/>
<path fill="#709AD7" opacity="1.000000" stroke="none" 
	d="
M42.375000,81.000000 
	C42.009117,78.322502 42.018238,75.645004 42.326500,72.347626 
	C54.928757,65.087547 64.016235,55.708149 66.210297,41.448860 
	C67.260834,34.621395 66.938660,27.543638 66.728340,20.594671 
	C66.686981,19.227991 64.540794,17.293467 62.963703,16.714079 
	C56.113304,14.197385 49.114277,12.085238 42.169266,9.826059 
	C42.117985,7.179945 42.066708,4.533830 42.007713,1.443858 
	C42.444447,1.000000 42.888889,1.000000 43.797596,1.238055 
	C44.743000,1.567481 45.224148,1.658851 45.705292,1.750221 
	C45.470196,1.500146 45.235100,1.250072 45.000000,0.999999 
	C45.444447,1.000000 45.888889,1.000000 46.666668,1.000000 
	C47.700840,1.683361 48.283806,2.708177 49.120804,2.997113 
	C57.235199,5.798242 65.392197,8.475961 73.772636,11.902092 
	C74.002998,15.404443 73.887985,18.198633 74.015533,20.981705 
	C74.275642,26.657154 74.666428,32.326614 75.003372,37.998543 
	C73.808441,55.607956 64.847969,68.270226 50.022526,77.188545 
	C48.190811,78.290421 46.327095,79.339104 44.739105,80.706223 
	C44.250000,81.000000 43.500000,81.000000 42.375000,81.000000 
z"/>
<path fill="#010102" opacity="1.000000" stroke="none" 
	d="
M39.750000,1.000000 
	C39.473640,1.071782 38.947285,1.143564 38.710464,1.107673 
	C39.000000,1.000000 39.500000,1.000000 39.750000,1.000000 
z"/>
<path fill="#020305" opacity="1.000000" stroke="none" 
	d="
M44.750000,0.999999 
	C45.235100,1.250072 45.470196,1.500146 45.705292,1.750221 
	C45.224148,1.658851 44.743000,1.567481 44.130928,1.238055 
	C44.000000,1.000000 44.500000,1.000000 44.750000,0.999999 
z"/>
<path fill="#5984D5" opacity="1.000000" stroke="none" 
	d="
M9.815354,11.742962 
	C9.924405,11.984499 9.713462,12.286944 9.304355,12.781456 
	C9.235914,12.583638 9.365638,12.193754 9.815354,11.742962 
z"/>
<path fill="#85B7FA" opacity="1.000000" stroke="none" 
	d="
M75.117981,37.542271 
	C74.666428,32.326614 74.275642,26.657154 74.015533,20.981705 
	C73.887985,18.198633 74.002998,15.404443 74.051193,12.124937 
	C74.493469,12.921192 75.220886,14.203531 75.237663,15.495100 
	C75.331139,22.690830 75.252419,29.888796 75.117981,37.542271 
z"/>
<path fill="#527AC6" opacity="1.000000" stroke="none" 
	d="
M42.121815,9.875107 
	C49.114277,12.085238 56.113304,14.197385 62.963703,16.714079 
	C64.540794,17.293467 66.686981,19.227991 66.728340,20.594671 
	C66.938660,27.543638 67.260834,34.621395 66.210297,41.448860 
	C64.016235,55.708149 54.928757,65.087547 42.329693,71.902573 
	C42.028625,71.902328 42.023506,71.727249 42.013954,70.817902 
	C41.977783,63.325825 41.946041,56.568020 42.056931,49.512321 
	C48.038265,43.423813 53.876965,37.633198 59.880653,31.678951 
	C58.288609,30.196045 57.112095,29.100183 55.866776,27.940228 
	C51.494404,32.122570 47.331230,36.104813 42.931519,39.737801 
	C42.456223,29.599541 42.217464,19.810537 41.978706,10.021532 
	C41.978706,10.021532 42.074360,9.924154 42.121815,9.875107 
z"/>
<path fill="#4466B9" opacity="1.000000" stroke="none" 
	d="
M41.612129,10.090737 
	C42.217464,19.810537 42.456223,29.599541 42.775650,40.055740 
	C36.439640,47.356220 35.815121,36.982689 30.852207,37.209812 
	C30.113995,38.022949 28.862730,39.401211 27.094604,41.348789 
	C30.396259,44.388046 33.391098,46.987507 36.194977,49.778793 
	C38.211327,51.786095 39.995453,51.869957 41.914299,49.810219 
	C41.946041,56.568020 41.977783,63.325825 42.008736,70.555222 
	C28.376604,65.690239 20.769835,55.346825 18.268435,41.309219 
	C17.169342,35.141235 17.433947,28.734041 17.012405,22.439943 
	C16.797428,19.230091 18.340994,17.612427 21.312769,16.692772 
	C27.991333,14.626004 34.605293,12.350487 41.612129,10.090737 
z"/>
<path fill="#F6CD0B" opacity="1.000000" stroke="none" 
	d="
M42.056931,49.512321 
	C39.995453,51.869957 38.211327,51.786095 36.194977,49.778793 
	C33.391098,46.987507 30.396259,44.388046 27.094604,41.348789 
	C28.862730,39.401211 30.113995,38.022949 30.852207,37.209812 
	C35.815121,36.982689 36.439640,47.356220 43.012184,40.404995 
	C47.331230,36.104813 51.494404,32.122570 55.866776,27.940228 
	C57.112095,29.100183 58.288609,30.196045 59.880653,31.678951 
	C53.876965,37.633198 48.038265,43.423813 42.056931,49.512321 
z"/>
</svg>